<svg width="116" height="116" viewBox="0 0 116 116" fill="none" xmlns="http://www.w3.org/2000/svg">
    <rect width="116" height="116" rx="8" fill="#F8A80E" />
    <path fill-rule="evenodd" clip-rule="evenodd"
        d="M37.4584 27.1534C37.4584 25.7114 37.0897 24.2935 36.3874 23.0341C35.6851 21.7748 34.6726 20.7158 33.4459 19.9579C32.2192 19.2001 30.8192 18.7683 29.3787 18.7038C27.9382 18.6393 26.5051 18.944 25.2156 19.5892L15.5489 24.4225C14.1445 25.1252 12.9633 26.205 12.1379 27.5409C11.3124 28.8769 10.8751 30.4163 10.8751 31.9867V49.5414H9.66675C8.70534 49.5414 7.78331 49.9233 7.10349 50.6031C6.42367 51.2829 6.04175 52.205 6.04175 53.1664V82.1664C6.04175 86.9734 7.95134 91.5836 11.3504 94.9827C14.7495 98.3818 19.3597 100.291 24.1667 100.291C28.9738 100.291 33.584 98.3818 36.9831 94.9827C40.3822 91.5836 42.2917 86.9734 42.2917 82.1664V53.1664C42.2917 52.205 41.9098 51.2829 41.23 50.6031C40.5502 49.9233 39.6282 49.5414 38.6667 49.5414H37.4584V27.1534ZM13.2917 56.7914H35.0417V82.1664C35.0417 83.5945 34.7605 85.0086 34.2139 86.328C33.6674 87.6475 32.8664 88.8463 31.8565 89.8561C30.8467 90.866 29.6478 91.667 28.3284 92.2136C27.009 92.7601 25.5949 93.0414 24.1667 93.0414C22.7386 93.0414 21.3245 92.7601 20.0051 92.2136C18.6857 91.667 17.4868 90.866 16.477 89.8561C15.4671 88.8463 14.6661 87.6475 14.1196 86.328C13.573 85.0086 13.2917 83.5945 13.2917 82.1664V56.7914ZM30.2084 49.5414V27.1534C30.2088 26.9471 30.1564 26.7442 30.0562 26.5639C29.956 26.3836 29.8113 26.232 29.6359 26.1235C29.4605 26.0149 29.2602 25.9531 29.0542 25.9439C28.8481 25.9346 28.6432 25.9783 28.4587 26.0707L18.7921 30.904C18.5913 31.0047 18.4225 31.1593 18.3046 31.3505C18.1868 31.5418 18.1246 31.7621 18.1251 31.9867V49.5414H30.2084ZM79.7501 20.5414C72.0515 20.5397 64.6428 23.4774 59.0373 28.7543C53.4318 34.0313 50.0526 41.2493 49.5898 48.9339C49.1271 56.6186 51.6158 64.1899 56.5475 70.1014C61.4793 76.0129 68.482 79.8184 76.1251 80.7405V93.0414H65.2501C64.2887 93.0414 63.3666 93.4233 62.6868 94.1031C62.007 94.7829 61.6251 95.705 61.6251 96.6664C61.6251 97.6278 62.007 98.5498 62.6868 99.2296C63.3666 99.9094 64.2887 100.291 65.2501 100.291H94.2501C95.2115 100.291 96.1335 99.9094 96.8133 99.2296C97.4932 98.5498 97.8751 97.6278 97.8751 96.6664C97.8751 95.705 97.4932 94.7829 96.8133 94.1031C96.1335 93.4233 95.2115 93.0414 94.2501 93.0414H83.3751V80.7405C91.0035 79.7999 97.9866 75.9873 102.903 70.079C107.819 64.1706 110.298 56.6107 109.836 48.9384C109.374 41.2661 106.006 34.0584 100.416 28.7826C94.8264 23.5068 87.4362 20.5598 79.7501 20.5414ZM79.7501 73.708C82.765 73.708 85.7504 73.1142 88.5359 71.9604C91.3213 70.8067 93.8522 69.1156 95.9841 66.9837C98.116 64.8518 99.8071 62.3209 100.961 59.5355C102.115 56.75 102.708 53.7646 102.708 50.7497C102.708 47.7348 102.115 44.7494 100.961 41.9639C99.8071 39.1785 98.116 36.6476 95.9841 34.5157C93.8522 32.3838 91.3213 30.6927 88.5359 29.539C85.7504 28.3852 82.765 27.7914 79.7501 27.7914C73.6612 27.7914 67.8216 30.2102 63.5161 34.5157C59.2106 38.8212 56.7917 44.6608 56.7917 50.7497C56.7917 56.8386 59.2106 62.6782 63.5161 66.9837C67.8216 71.2892 73.6612 73.708 79.7501 73.708Z"
        fill="white" />
</svg>