<svg width="116" height="116" viewBox="0 0 116 116" fill="none" xmlns="http://www.w3.org/2000/svg">
    <rect width="116" height="116" rx="8" fill="#0B0E6A" />
    <path fill-rule="evenodd" clip-rule="evenodd"
        d="M23.2338 40.1885C26.9941 36.3025 30.7545 35.0072 35.7666 37.5978C40.281 39.9299 42.7629 40.1619 45.0418 40.1861C47.4174 40.1619 50.0008 39.9299 54.7036 37.5978C59.9236 35.0072 63.8386 36.3025 67.7561 40.1885C72.3719 44.7705 73.7977 49.541 74.2835 53.1442C74.3399 53.4342 74.3906 53.7242 74.4357 54.0142C72.8776 54.469 71.4831 55.3623 70.4187 56.5877C69.3543 57.813 68.6647 59.3187 68.4324 60.9251C68.2001 62.5316 68.4348 64.1709 69.1084 65.6476C69.7821 67.1244 70.8663 68.3762 72.2317 69.2537L72.0408 69.7443C71.0837 69.0668 69.9962 68.5956 68.8473 68.3608C67.6984 68.126 66.5132 68.1327 65.367 68.3804C64.2208 68.6281 63.1386 69.1114 62.1892 69.7997C61.2398 70.488 60.4438 71.3661 59.8519 72.3784C59.26 73.3907 58.8851 74.5151 58.7509 75.68C58.6167 76.845 58.7262 78.0251 59.0725 79.1455C59.4187 80.2658 59.9942 81.3019 60.7623 82.188C61.5303 83.0741 62.4743 83.7908 63.5341 84.2927C63.3054 84.5762 63.0822 84.8428 62.8647 85.0926C60.8468 87.1926 58.551 88.5387 56.0618 88.1279C48.2318 86.8301 46.9268 86.8301 45.6218 86.8301H44.486C43.2341 86.8301 41.9799 86.8301 34.4616 88.1279C28.4441 89.1622 23.6108 79.0581 21.2135 73.8792C17.4435 65.752 16.6919 57.4459 16.9674 53.1442C17.4338 49.5386 18.8041 44.7705 23.2338 40.1909"
        fill="white" />
    <path fill-rule="evenodd" clip-rule="evenodd"
        d="M91.4586 43.7177C94.1733 44.6917 96.3898 46.7041 97.6207 49.3123C98.8516 51.9206 98.9961 54.9109 98.0223 57.6256C97.9434 57.8399 97.8411 58.0356 97.7154 58.2129C99.6881 59.9089 100.988 62.256 101.378 64.8281C101.768 67.4003 101.223 70.0271 99.8421 72.2319C99.1642 73.3136 98.3011 74.2674 97.2925 75.0498C97.3263 75.4042 97.3432 75.7627 97.3432 76.1252C97.3443 77.9307 96.8958 79.708 96.0382 81.2969C97.3851 82.0249 98.563 83.0291 99.4949 84.2438C100.427 85.4585 101.092 86.8562 101.446 88.3456C101.801 89.835 101.837 91.3825 101.552 92.8867C101.267 94.391 100.668 95.8182 99.7935 97.0749C98.919 98.3316 97.7891 99.3895 96.4776 100.179C95.1661 100.969 93.7026 101.473 92.1829 101.659C90.6631 101.844 89.1214 101.706 87.6585 101.255C86.1956 100.803 84.8446 100.047 83.6939 99.0376C81.8561 100.545 79.5752 101.408 77.2002 101.496C74.8252 101.584 72.4869 100.891 70.5428 99.5238C68.5988 98.1567 67.1561 96.1904 66.4354 93.9256C65.7148 91.6609 65.7559 89.2224 66.5525 86.9833C63.7734 86.8337 61.1575 85.6244 59.2431 83.6043C57.3288 81.5842 56.2618 78.9071 56.2618 76.124C56.2618 73.3409 57.3288 70.6637 59.2431 68.6436C61.1575 66.6235 63.7734 65.4142 66.5525 65.2647C65.9517 63.5737 65.7787 61.7604 66.0489 59.9863C66.3191 58.2122 67.0242 56.5326 68.1011 55.0972C69.1781 53.6618 70.5936 52.5152 72.2213 51.7597C73.849 51.0041 75.6384 50.6631 77.4299 50.7671C77.4524 50.6044 77.4927 50.4417 77.5507 50.2789C78.5252 47.5648 80.5379 45.3488 83.146 44.1183C85.7542 42.8879 88.7442 42.7438 91.4586 43.7177ZM86.6664 95.2096C87.315 95.8354 88.0954 96.3082 88.9505 96.5933C89.8055 96.8783 90.7135 96.9685 91.6079 96.8571C92.5023 96.7458 93.3604 96.4357 94.1194 95.9497C94.8785 95.4636 95.5191 94.8139 95.9945 94.0481C96.4698 93.2824 96.7678 92.42 96.8666 91.5241C96.9655 90.6282 96.8626 89.7216 96.5655 88.8707C96.2685 88.0197 95.7848 87.246 95.15 86.6062C94.5151 85.9664 93.7452 85.4768 92.8966 85.1732C92.8142 85.1438 92.7336 85.1099 92.6549 85.0717C91.0478 86.1834 89.1266 86.8745 87.0531 86.9857C87.4566 88.1215 87.6766 89.3492 87.6766 90.6252C87.6766 92.2637 87.3141 93.8152 86.6664 95.2096ZM87.0531 65.2671C88.7326 65.357 90.3684 65.8353 91.8319 66.6643C93.2954 67.4933 94.5466 68.6505 95.4872 70.0448C96.061 69.267 96.4397 68.3628 96.5917 67.4083C96.7699 66.2873 96.6288 65.1388 96.1844 64.0944C95.7401 63.05 95.0105 62.1518 94.0793 61.5028C93.1481 60.8539 92.0529 60.4803 90.9193 60.425C89.7856 60.3697 88.6592 60.6349 87.6693 61.1902C87.7254 62.5752 87.5163 63.9606 87.0531 65.2671ZM86.3691 56.4487C88.6182 55.4931 91.1237 55.3228 93.4814 55.9654C94.0137 54.4573 93.9263 52.7996 93.2384 51.3559C92.5506 49.9121 91.3183 48.7999 89.8118 48.2632C88.3053 47.7265 86.6474 47.809 85.2016 48.4926C83.7558 49.1763 82.64 50.4052 82.0989 51.9102L82.0288 52.0842C83.8657 53.0907 85.3729 54.6062 86.3691 56.4487ZM76.8016 55.5835C75.1992 55.5835 73.6625 56.2201 72.5295 57.3531C71.3964 58.4861 70.7599 60.0228 70.7599 61.6252C70.7599 63.2275 71.3964 64.7643 72.5295 65.8973C73.6625 67.0303 75.1992 67.6669 76.8016 67.6669C78.4039 67.6669 79.9406 67.0303 81.0737 65.8973C82.2067 64.7643 82.8432 63.2275 82.8432 61.6252C82.8432 60.0228 82.2067 58.4861 81.0737 57.3531C79.9406 56.2201 78.4039 55.5835 76.8016 55.5835ZM67.1349 70.0835C65.5325 70.0835 63.9958 70.7201 62.8628 71.8531C61.7298 72.9861 61.0932 74.5228 61.0932 76.1252C61.0932 77.7275 61.7298 79.2643 62.8628 80.3973C63.9958 81.5303 65.5325 82.1669 67.1349 82.1669C68.7372 82.1669 70.274 81.5303 71.407 80.3973C72.54 79.2643 73.1766 77.7275 73.1766 76.1252C73.1766 74.5228 72.54 72.9861 71.407 71.8531C70.274 70.7201 68.7372 70.0835 67.1349 70.0835ZM80.4266 76.1252C80.4266 74.5228 81.0631 72.9861 82.1961 71.8531C83.3292 70.7201 84.8659 70.0835 86.4682 70.0835C88.0706 70.0835 89.6073 70.7201 90.7403 71.8531C91.8734 72.9861 92.5099 74.5228 92.5099 76.1252C92.5099 77.7275 91.8734 79.2643 90.7403 80.3973C89.6073 81.5303 88.0706 82.1669 86.4682 82.1669C84.8659 82.1669 83.3292 81.5303 82.1961 80.3973C81.0631 79.2643 80.4266 77.7275 80.4266 76.1252ZM76.8016 84.5835C75.1992 84.5835 73.6625 85.22 72.5295 86.3531C71.3964 87.4861 70.7599 89.0228 70.7599 90.6252C70.7599 92.2275 71.3964 93.7643 72.5295 94.8973C73.6625 96.0303 75.1992 96.6669 76.8016 96.6669C78.4039 96.6669 79.9406 96.0303 81.0737 94.8973C82.2067 93.7643 82.8432 92.2275 82.8432 90.6252C82.8432 89.0228 82.2067 87.4861 81.0737 86.3531C79.9406 85.22 78.4039 84.5835 76.8016 84.5835ZM18.282 19.3359H21.0201C27.8834 19.3359 34.3456 22.422 39.0629 26.5183C40.5962 27.845 41.9861 29.3289 43.2099 30.9456V25.5347C43.2099 24.8937 43.4645 24.2791 43.9177 23.8258C44.3709 23.3726 44.9856 23.118 45.6266 23.118C46.2675 23.118 46.8822 23.3726 47.3354 23.8258C47.7886 24.2791 48.0432 24.8937 48.0432 25.5347V41.4847C48.0434 41.8497 47.9608 42.2101 47.8018 42.5386C47.6427 42.8672 47.4113 43.1554 47.1249 43.3818V43.5002H46.9606C46.5645 43.7639 46.0992 43.9042 45.6234 43.9034C45.1476 43.9025 44.6828 43.7605 44.2877 43.4954C38.3911 43.389 32.4654 41.0956 27.8012 37.415C23.0259 33.645 19.4009 28.28 18.6227 22.0499L18.282 19.3359ZM41.8348 38.4518C40.9793 35.8152 38.9445 32.8161 35.8946 30.1674C32.608 27.3158 28.4513 25.1432 24.0916 24.4254C25.2589 27.9586 27.6514 31.1414 30.7955 33.6233C34.0169 36.1632 37.9174 37.8742 41.8348 38.4518Z"
        fill="white" />
    <path fill-rule="evenodd" clip-rule="evenodd"
        d="M91.7559 22.0977L92.1958 24.7995C93.2954 31.5734 91.2847 38.4488 87.9956 43.7607C84.7621 48.9855 79.9384 53.234 74.9094 54.0508L72.5241 54.4375L72.1374 52.0547C71.1708 46.0976 72.4806 39.7055 75.4338 34.3888C78.3869 29.0722 83.1067 24.6352 89.129 22.8686L91.7559 22.0977ZM87.6621 28.6468C84.3634 30.3675 81.6035 33.2385 79.6581 36.7378C77.6668 40.3242 76.5986 44.447 76.659 48.4103C79.124 47.1416 81.7582 44.6524 83.8849 41.2159C86.1759 37.5184 87.6524 33.0645 87.6645 28.6492"
        fill="white" />
</svg>