<svg width="116" height="116" viewBox="0 0 116 116" fill="none" xmlns="http://www.w3.org/2000/svg">
    <rect width="116" height="116" rx="8" fill="#13B379"/>
    <path d="M109.842 20.8533C109.77 19.6314 109.252 18.4785 108.386 17.613C107.521 16.7475 106.368 16.2295 105.146 16.1572C82.949 14.853 65.0606 21.7241 57.2935 34.5498C52.235 42.8835 52.06 52.9549 56.6852 62.5929C54.4338 65.4647 52.7021 68.7082 51.5683 72.1767L46.293 66.9014C49.289 59.9136 48.9723 52.6882 45.2929 46.6129C39.4676 36.9832 26.2003 31.833 9.80782 32.7789C8.58528 32.8513 7.43183 33.3699 6.56623 34.2362C5.70063 35.1026 5.18309 36.2565 5.11175 37.4791C4.1617 53.8716 9.31196 67.1389 18.9333 72.9642C22.1964 74.9531 25.9457 76.0014 29.7672 75.9935C33.0253 75.9673 36.2438 75.2768 39.226 73.9643L49.9973 84.7523V94.3361C49.9973 95.6623 50.5242 96.9341 51.4619 97.8718C52.3996 98.8096 53.6714 99.3364 54.9976 99.3364C56.3237 99.3364 57.5956 98.8096 58.5333 97.8718C59.471 96.9341 59.9979 95.6623 59.9979 94.3361V82.048C59.9875 77.5783 61.3697 73.2164 63.9522 69.5682C68.1356 71.55 72.6991 72.6006 77.3279 72.6475C82.3082 72.659 87.195 71.2949 91.4494 68.7057C104.271 60.9386 111.15 43.0502 109.842 20.8533ZM24.1127 64.4096C18.6166 61.0761 15.2873 52.9674 15.0164 42.6877C25.2961 42.9585 33.409 46.2879 36.7383 51.784C38.0403 53.9017 38.5744 56.4028 38.2509 58.8677L33.5299 54.1299C32.5905 53.1906 31.3165 52.6629 29.988 52.6629C28.6596 52.6629 27.3855 53.1906 26.4462 54.1299C25.5068 55.0693 24.9791 56.3433 24.9791 57.6718C24.9791 59.0002 25.5068 60.2743 26.4462 61.2136L31.1714 65.9389C28.7133 66.2424 26.2248 65.7033 24.1127 64.4096ZM86.27 60.1677C81.8281 62.8554 76.6862 63.3637 71.3484 61.7345L86.87 46.217C87.8094 45.2777 88.3371 44.0036 88.3371 42.6752C88.3371 41.3467 87.8094 40.0727 86.87 39.1334C85.9307 38.194 84.6566 37.6663 83.3282 37.6663C81.9997 37.6663 80.7257 38.194 79.7864 39.1334L64.2647 54.6508C62.6522 49.3339 63.1605 44.1711 65.8315 39.7501C71.1234 30.9996 83.6032 25.9994 99.7165 25.9994H99.9999C100.058 42.2502 95.058 54.8258 86.27 60.1677Z" fill="white"/>
    </svg>
    