<svg width="116" height="116" viewBox="0 0 116 116" fill="none" xmlns="http://www.w3.org/2000/svg">
    <rect width="116" height="116" rx="8" fill="#C92121" />
    <path
        d="M69.5833 31.75C69.5833 27.69 76.8333 19.6667 76.8333 19.6667C76.8333 19.6667 84.0833 27.69 84.0833 31.75C84.0833 35.7617 80.845 39 76.8333 39C72.8217 39 69.5833 35.7617 69.5833 31.75ZM88.9167 72.8333C92.1214 72.8333 95.1948 71.5603 97.4609 69.2942C99.7269 67.0281 101 63.9547 101 60.75C101 52.6783 88.9167 39 88.9167 39C88.9167 39 76.8333 52.6783 76.8333 60.75C76.8333 63.9547 78.1064 67.0281 80.3725 69.2942C82.6385 71.5603 85.712 72.8333 88.9167 72.8333ZM72 58.3333V97C72 102.317 67.65 106.667 62.3333 106.667H23.6667C18.35 106.667 14 102.317 14 97V58.3333C14 43.9783 24.44 32.0883 38.1667 29.7683V19.6667H28.5V10H57.5C62.9617 10 67.8917 11.885 72 14.8333L65.04 21.7933C62.8167 20.4883 60.255 19.6667 57.5 19.6667H47.8333V29.7683C61.56 32.0883 72 43.9783 72 58.3333ZM62.3333 58.3333C62.3333 47.6517 53.6817 39 43 39C32.3183 39 23.6667 47.6517 23.6667 58.3333V97H62.3333V58.3333Z"
        fill="white" />
</svg>