<svg width="116" height="116" viewBox="0 0 116 116" fill="none" xmlns="http://www.w3.org/2000/svg">
    <rect width="116" height="116" rx="8" fill="#a9b0b2" />
    <path
        d="M58.1847 18.0008C55.473 18.0399 53.1326 19.5267 50.5205 21.5416C36.5878 32.286 19.4731 47.1845 14.6858 57.6335C12.8856 55.2438 6.61401 55.7716 6.61401 59.0782C6.61401 61.9151 10.9779 62.7002 13.4716 61.4862C13.3381 62.4269 13.3587 63.3051 13.5465 64.118C12.1645 64.5267 11.0981 65.4192 11.0981 66.7834C11.0981 69.7705 15.9363 70.4896 18.3354 68.9883C19.4543 69.6029 20.5994 70.1687 21.7674 70.6839C21.5894 71.0121 21.4961 71.3865 21.4961 71.803C21.4961 74.3243 24.9403 75.2251 27.4586 74.5435C27.4269 74.6976 27.4108 74.863 27.4108 75.0319C27.4108 79.0027 35.964 78.9671 35.964 75.0319C35.964 75 35.9584 74.9683 35.9575 74.937C39.056 75.5305 42.277 75.9741 45.5687 76.273C46.2205 79.3812 52.657 79.5093 53.871 76.7208C57.1337 76.7837 60.418 76.7208 63.6723 76.5309C63.6427 76.6813 63.618 76.8413 63.618 77.0056C63.618 80.0812 68.752 80.7502 71.0658 79.0676C73.6075 82.84 83.2208 82.128 83.2208 77.0327C83.2208 76.5326 83.1324 76.0759 82.9629 75.6624C85.039 76.6401 87.8618 76.7965 90.18 76.1306C90.7091 79.7138 98.7063 79.5488 98.7063 75.7436C98.7063 73.6968 96.3961 72.7424 94.175 72.8338C94.3003 72.4442 94.3717 72.0238 94.3717 71.5727C94.3717 71.1712 94.3153 70.7978 94.2154 70.4462C95.3187 70.0134 96.3812 69.5563 97.397 69.0831C100.054 67.8448 101.215 65.8429 101.236 63.3175C103.739 64.4831 108.033 63.6574 108.033 60.8691C108.033 57.7312 102.592 57.1428 100.388 58.9901C96.3616 47.7814 78.8471 31.0001 65.4901 20.9649C62.63 18.816 60.2938 17.9704 58.1847 18.0008ZM105.727 68.1606C103.588 68.17 101.447 69.1541 101.447 71.0843C101.447 75.0549 110 75.0195 110 71.0843C110 69.1165 107.865 68.1513 105.727 68.1606H105.727ZM9.2803 70.6704C7.14145 70.6798 5 71.6637 5 73.5937C5 77.5649 13.5532 77.5289 13.5532 73.5937C13.5532 71.6263 11.4187 70.6613 9.28008 70.6706L9.2803 70.6704ZM19.1354 76.8428C16.8108 76.853 14.4839 77.8883 14.3264 79.9154C12.0668 79.8004 9.65971 80.7788 9.65971 82.8252C9.65971 86.5894 17.3443 86.7535 18.145 83.4087C20.8332 83.7538 23.9512 82.6609 23.9512 80.1392C23.9512 77.9244 21.543 76.8321 19.1354 76.8428ZM38.501 79.1014C37.056 79.108 35.6098 79.5573 34.8241 80.4446C31.8956 79.8281 28.1227 80.9384 28.1227 83.7208C28.1227 87.9353 36.3028 88.3169 37.9242 84.9619C40.2367 85.1512 42.7741 84.1697 42.7741 82.0252C42.7741 80.0574 40.6398 79.0921 38.5012 79.1014H38.501ZM57.8591 79.4542C55.7207 79.4637 53.5795 80.4478 53.5795 82.3779C53.5795 86.3487 62.1394 86.3131 62.1394 82.3779C62.1394 80.4103 59.998 79.445 57.8591 79.4542ZM103.576 80.7704C100.765 80.7825 97.9533 82.0792 97.9533 84.6166C97.9533 89.8352 109.192 89.7881 109.192 84.6161C109.192 82.0304 106.387 80.758 103.576 80.7704ZM87.2567 82.3169C85.1178 82.326 82.9764 83.3099 82.9764 85.2399C82.9764 89.2109 91.5365 89.1751 91.5365 85.2399C91.5365 83.2726 89.3951 82.3075 87.2562 82.3167L87.2567 82.3169ZM47.9085 85.3014C45.4562 85.3118 43.0046 86.4387 43.0046 88.6518C43.0046 91.3622 46.4788 92.4405 49.2927 91.9213C50.7782 95.9811 60.3418 95.5721 60.3418 90.8017C60.3418 87.4986 55.7604 86.3484 52.4462 87.2681C51.674 85.943 49.7921 85.2929 47.9085 85.3009V85.3014ZM74.3552 86.8069C73.0073 86.8127 71.6544 87.2067 70.842 87.9803C68.3248 86.908 64.1611 87.7541 64.1611 90.4492C64.1606 93.6829 69.8342 94.2557 71.9407 92.2334C74.4579 93.3239 78.6288 92.4778 78.6288 89.7304C78.6288 87.7628 76.4938 86.7975 74.355 86.8066L74.3552 86.8069ZM22.1885 87.3634C19.7358 87.3738 17.2774 88.5007 17.2774 90.7138C17.2774 95.2672 27.0926 95.2264 27.0926 90.7138C27.0926 88.4578 24.6408 87.3523 22.1885 87.3632V87.3634ZM94.9145 90.3674C92.507 90.3783 90.0986 91.4844 90.0986 93.6573C90.0986 98.1273 99.7303 98.0874 99.7303 93.6573C99.7303 91.442 97.3221 90.3568 94.9145 90.3672V90.3674ZM36.1676 90.7677C33.7149 90.7785 31.2635 91.905 31.2635 94.1185C31.2635 98.6719 41.0717 98.6311 41.0717 94.1185C41.0717 91.8623 38.6199 90.757 36.1676 90.7677Z"
        fill="#000000" />
</svg>